<svg width="35" height="34" viewBox="0 0 35 34" fill="none" xmlns="http://www.w3.org/2000/svg">
<path d="M32.7077 32.8358L25.1688 30.5738L19.4833 33.9984L15.5167 33.9967L9.82793 30.5738L2.29225 32.8358L0 25.0385L2.29225 16.3846L0 9.06801L2.29225 0L14.0674 7.08875H20.9326L32.7077 0L35 9.06801L32.7077 16.3846L35 25.0385L32.7077 32.8358Z" fill="#FF5C16"/>
<path d="M2.29395 0L14.0691 7.09374L13.6008 11.9621L2.29395 0Z" fill="#FF5C16"/>
<path d="M9.8291 25.042L15.0101 29.0188L9.8291 30.5739V25.042Z" fill="#FF5C16"/>
<path d="M14.5961 18.467L13.6004 11.9653L7.22643 16.3862L7.22314 16.3846V16.3879L7.24286 20.9385L9.8276 18.467H9.82925H14.5961Z" fill="#FF5C16"/>
<path d="M32.7077 0L20.9326 7.09374L21.3993 11.9621L32.7077 0Z" fill="#FF5C16"/>
<path d="M25.1717 25.042L19.9907 29.0188L25.1717 30.5739V25.042Z" fill="#FF5C16"/>
<path d="M27.7761 16.3879H27.7778H27.7761V16.3846L27.7745 16.3862L21.4006 11.9653L20.4048 18.467H25.1717L27.7581 20.9385L27.7761 16.3879Z" fill="#FF5C16"/>
<path d="M9.82793 30.5739L2.29225 32.836L0 25.042H9.82793V30.5739Z" fill="#E34807"/>
<path d="M14.5947 18.4653L16.0341 27.8643L14.0393 22.6384L7.23975 20.9386L9.82613 18.4653H14.593H14.5947Z" fill="#E34807"/>
<path d="M25.1724 30.5739L32.708 32.836L35.0003 25.042H25.1724V30.5739Z" fill="#E34807"/>
<path d="M20.4053 18.4653L18.9658 27.8643L20.9607 22.6384L27.7602 20.9386L25.1722 18.4653H20.4053Z" fill="#E34807"/>
<path d="M0 25.0386L2.29225 16.3848H7.22183L7.23991 20.9371L14.0394 22.6369L16.0343 27.8628L15.0089 29.0138L9.82793 25.037H0V25.0386Z" fill="#FF8D5D"/>
<path d="M35.0001 25.0386L32.7078 16.3848H27.7783L27.7602 20.9371L20.9607 22.6369L18.9658 27.8628L19.9912 29.0138L25.1722 25.037H35.0001V25.0386Z" fill="#FF8D5D"/>
<path d="M20.933 7.08887H17.5004H14.0677L13.6011 11.9572L16.0346 27.8578H18.9661L21.4013 11.9572L20.933 7.08887Z" fill="#FF8D5D"/>
<path d="M2.29225 0L0 9.06801L2.29225 16.3846H7.22183L13.5991 11.9621L2.29225 0Z" fill="#661800"/>
<path d="M13.1703 20.3532H10.9372L9.72119 21.5541L14.0411 22.6335L13.1703 20.3516V20.3532Z" fill="#661800"/>
<path d="M32.7077 0L34.9999 9.06801L32.7077 16.3846H27.7781L21.4009 11.9621L32.7077 0Z" fill="#661800"/>
<path d="M21.8335 20.3532H24.0699L25.2858 21.5558L20.9609 22.6369L21.8335 20.3516V20.3532Z" fill="#661800"/>
<path d="M19.4822 30.8966L19.9916 29.0172L18.9663 27.8662H16.0332L15.0078 29.0172L15.5172 30.8966" fill="#661800"/>
<path d="M19.4816 30.8965V34.0001H15.5166V30.8965H19.4816Z" fill="#C0C4CD"/>
<path d="M9.8291 30.5703L15.5195 33.9982V30.8946L15.0101 29.0151L9.8291 30.5703Z" fill="#E7EBF6"/>
<path d="M25.1718 30.5703L19.4814 33.9982V30.8946L19.9908 29.0151L25.1718 30.5703Z" fill="#E7EBF6"/>
</svg>
