<svg width="562" height="518" viewBox="0 0 562 518" fill="none" xmlns="http://www.w3.org/2000/svg">
<path d="M534.203 0.783691L314.658 162.169L355.484 67.0594L534.203 0.783691Z" fill="#6D95F9"/>
<path d="M27.7988 0.783691L245.389 163.676L206.518 67.0594L27.7988 0.783691Z" fill="#6D95F9"/>
<path d="M455.16 374.986L396.745 463.641L521.827 497.855L557.658 376.923L455.16 374.986Z" fill="#6D95F9"/>
<path d="M4.56055 376.923L40.1741 497.855L165.039 463.641L106.841 374.986L4.56055 376.923Z" fill="#6D95F9"/>
<path d="M158.308 225.216L123.563 277.29L247.342 282.885L243.216 150.548L158.308 225.216Z" fill="#6D95F9"/>
<path d="M403.692 225.214L317.481 149.04L314.658 282.882L438.437 277.287L403.692 225.214Z" fill="#6D95F9"/>
<path d="M165.037 463.637L239.956 427.702L175.461 377.78L165.037 463.637Z" fill="#6D95F9"/>
<path d="M322.044 427.702L396.745 463.637L386.539 377.78L322.044 427.702Z" fill="#6D95F9"/>
<path d="M396.744 463.637L322.043 427.702L328.123 475.903L327.472 496.345L396.744 463.637Z" fill="#D7C1B3"/>
<path d="M165.039 463.646L234.529 496.353L234.095 475.911L239.958 427.71L165.039 463.646Z" fill="#D7C1B3"/>
<path d="M235.831 345.93L173.725 327.855L217.59 307.843L235.831 345.93Z" fill="#2F343B"/>
<path d="M326.165 345.93L344.406 307.843L388.489 327.855L326.165 345.93Z" fill="#2F343B"/>
<path d="M165.039 463.639L175.896 374.985L106.841 376.921L165.039 463.639Z" fill="#497BF8"/>
<path d="M386.102 374.985L396.742 463.639L455.157 376.921L386.102 374.985Z" fill="#497BF8"/>
<path d="M438.436 277.29L314.657 282.884L326.166 345.932L344.408 307.845L388.49 327.857L438.436 277.29Z" fill="#497BF8"/>
<path d="M173.725 327.857L217.591 307.845L235.832 345.932L247.341 282.884L123.562 277.29L173.725 327.857Z" fill="#497BF8"/>
<path d="M123.563 277.303L175.464 377.792L173.726 327.87L123.563 277.303Z" fill="#6D95F9"/>
<path d="M388.493 327.857L386.539 377.779L438.439 277.29L388.493 327.857Z" fill="#6D95F9"/>
<path d="M247.341 282.882L235.832 345.93L250.381 420.383L253.639 322.26L247.341 282.882Z" fill="#6D95F9"/>
<path d="M314.659 282.882L308.579 322.045L311.619 420.383L326.169 345.93L314.659 282.882Z" fill="#6D95F9"/>
<path d="M326.169 345.938L311.619 420.39L322.043 427.706L386.538 377.784L388.492 327.863L326.169 345.938Z" fill="#B6CAFC"/>
<path d="M173.725 327.863L175.462 377.784L239.957 427.706L250.381 420.39L235.831 345.938L173.725 327.863Z" fill="#B6CAFC"/>
<path d="M327.472 496.344L328.123 475.902L322.477 471.168H239.523L234.095 475.902L234.529 496.344L165.039 463.636L189.36 483.433L238.655 517.216H323.128L372.64 483.433L396.744 463.636L327.472 496.344Z" fill="#C0AD9E"/>
<path d="M322.043 427.701L311.619 420.385H250.381L239.958 427.701L234.095 475.902L239.524 471.168H322.477L328.123 475.902L322.043 427.701Z" fill="#2F343B"/>
<path d="M543.542 172.713L562 83.6284L534.204 0.783691L322.043 156.79L403.693 225.217L519.003 258.57L544.41 229.091L533.335 221.129L550.925 205.206L537.461 194.877L555.051 181.536L543.542 172.713Z" fill="#2C56DD"/>
<path d="M0 83.6418L18.6754 172.727L6.73183 181.549L24.5386 194.89L11.0749 205.219L28.6646 221.142L17.5896 229.104L42.9968 258.584L158.307 225.231L239.957 156.803L27.7959 0.797119L0 83.6418Z" fill="#2C56DD"/>
<path d="M519.002 258.572L403.692 225.219L438.437 277.293L386.537 377.783L455.158 376.922H557.656L519.002 258.572Z" fill="#B6CAFC"/>
<path d="M158.306 225.219L42.9961 258.572L4.55957 376.922H106.84L175.461 377.783L123.561 277.293L158.306 225.219Z" fill="#B6CAFC"/>
<path d="M314.657 282.882L322.041 156.786L355.482 67.0559H206.514L239.956 156.786L247.339 282.882L250.162 322.476L250.379 420.383H311.617L311.834 322.476L314.657 282.882Z" fill="#B6CAFC"/>
</svg>
